<mxfile host="app.diagrams.net" modified="2024-02-29T19:23:19.082Z" agent="Mozilla/5.0 (Windows NT 10.0; Win64; x64) AppleWebKit/537.36 (KHTML, like Gecko) Chrome/120.0.0.0 Safari/537.36" etag="MTEyl_-HUnMsXCbqDFR3" version="24.0.0" type="github">
  <diagram id="R2lEEEUBdFMjLlhIrx00" name="Page-1">
    <mxGraphModel dx="972" dy="666" grid="1" gridSize="10" guides="1" tooltips="1" connect="1" arrows="1" fold="1" page="1" pageScale="1" pageWidth="850" pageHeight="1100" math="0" shadow="0" extFonts="Permanent Marker^https://fonts.googleapis.com/css?family=Permanent+Marker">
      <root>
        <mxCell id="0" />
        <mxCell id="1" parent="0" />
        <mxCell id="B6gbd04tvwF5u691TDdn-19" value="" style="whiteSpace=wrap;html=1;aspect=fixed;" vertex="1" parent="1">
          <mxGeometry x="10" y="30" width="370" height="370" as="geometry" />
        </mxCell>
        <mxCell id="B6gbd04tvwF5u691TDdn-15" value="Producer" style="rounded=0;whiteSpace=wrap;html=1;" vertex="1" parent="1">
          <mxGeometry x="135" y="90" width="120" height="60" as="geometry" />
        </mxCell>
        <mxCell id="B6gbd04tvwF5u691TDdn-16" value="" style="whiteSpace=wrap;html=1;aspect=fixed;" vertex="1" parent="1">
          <mxGeometry x="470" y="30" width="370" height="370" as="geometry" />
        </mxCell>
        <mxCell id="B6gbd04tvwF5u691TDdn-17" value="Consumer" style="rounded=0;whiteSpace=wrap;html=1;" vertex="1" parent="1">
          <mxGeometry x="135" y="240" width="120" height="60" as="geometry" />
        </mxCell>
        <mxCell id="B6gbd04tvwF5u691TDdn-18" value="Kafka topic" style="rounded=0;whiteSpace=wrap;html=1;" vertex="1" parent="1">
          <mxGeometry x="595" y="160" width="120" height="60" as="geometry" />
        </mxCell>
        <mxCell id="B6gbd04tvwF5u691TDdn-20" value="Local pc" style="rounded=0;whiteSpace=wrap;html=1;" vertex="1" parent="1">
          <mxGeometry x="10" width="100" height="30" as="geometry" />
        </mxCell>
        <mxCell id="B6gbd04tvwF5u691TDdn-21" value="Aiven environment" style="rounded=0;whiteSpace=wrap;html=1;" vertex="1" parent="1">
          <mxGeometry x="470" width="90" height="30" as="geometry" />
        </mxCell>
        <mxCell id="B6gbd04tvwF5u691TDdn-22" value="Message" style="rhombus;whiteSpace=wrap;html=1;" vertex="1" parent="1">
          <mxGeometry x="385" y="80" width="80" height="80" as="geometry" />
        </mxCell>
        <mxCell id="B6gbd04tvwF5u691TDdn-23" value="" style="endArrow=classic;html=1;rounded=0;exitX=1;exitY=0.5;exitDx=0;exitDy=0;entryX=0;entryY=0.5;entryDx=0;entryDy=0;" edge="1" parent="1" source="B6gbd04tvwF5u691TDdn-15" target="B6gbd04tvwF5u691TDdn-22">
          <mxGeometry width="50" height="50" relative="1" as="geometry">
            <mxPoint x="255" y="150" as="sourcePoint" />
            <mxPoint x="305" y="100" as="targetPoint" />
            <Array as="points">
              <mxPoint x="285" y="120" />
            </Array>
          </mxGeometry>
        </mxCell>
        <mxCell id="B6gbd04tvwF5u691TDdn-24" value="" style="endArrow=classic;html=1;rounded=0;exitX=1;exitY=0.5;exitDx=0;exitDy=0;entryX=0.5;entryY=0;entryDx=0;entryDy=0;" edge="1" parent="1" source="B6gbd04tvwF5u691TDdn-22" target="B6gbd04tvwF5u691TDdn-18">
          <mxGeometry width="50" height="50" relative="1" as="geometry">
            <mxPoint x="400" y="140" as="sourcePoint" />
            <mxPoint x="450" y="90" as="targetPoint" />
            <Array as="points">
              <mxPoint x="655" y="120" />
            </Array>
          </mxGeometry>
        </mxCell>
        <mxCell id="B6gbd04tvwF5u691TDdn-26" value="Message" style="rhombus;whiteSpace=wrap;html=1;" vertex="1" parent="1">
          <mxGeometry x="385" y="230" width="80" height="80" as="geometry" />
        </mxCell>
        <mxCell id="B6gbd04tvwF5u691TDdn-27" value="" style="endArrow=classic;html=1;rounded=0;exitX=0.5;exitY=1;exitDx=0;exitDy=0;entryX=1;entryY=0.5;entryDx=0;entryDy=0;" edge="1" parent="1" source="B6gbd04tvwF5u691TDdn-18" target="B6gbd04tvwF5u691TDdn-26">
          <mxGeometry width="50" height="50" relative="1" as="geometry">
            <mxPoint x="630" y="290" as="sourcePoint" />
            <mxPoint x="680" y="240" as="targetPoint" />
            <Array as="points">
              <mxPoint x="655" y="270" />
            </Array>
          </mxGeometry>
        </mxCell>
        <mxCell id="B6gbd04tvwF5u691TDdn-28" value="" style="endArrow=classic;html=1;rounded=0;exitX=0;exitY=0.5;exitDx=0;exitDy=0;entryX=1;entryY=0.5;entryDx=0;entryDy=0;" edge="1" parent="1" source="B6gbd04tvwF5u691TDdn-26" target="B6gbd04tvwF5u691TDdn-17">
          <mxGeometry width="50" height="50" relative="1" as="geometry">
            <mxPoint x="400" y="310" as="sourcePoint" />
            <mxPoint x="450" y="260" as="targetPoint" />
          </mxGeometry>
        </mxCell>
      </root>
    </mxGraphModel>
  </diagram>
</mxfile>
